<svg xmlns="http://www.w3.org/2000/svg" xmlns:xlink="http://www.w3.org/1999/xlink" width="2000" zoomAndPan="magnify" viewBox="0 0 1500 1499.999933" height="2000" preserveAspectRatio="xMidYMid meet" version="1.0"><defs><clipPath id="5a6c8a61bc"><path d="M 194 145 L 1183 145 L 1183 1216 L 194 1216 Z M 194 145 " clip-rule="nonzero"/></clipPath><clipPath id="786237b0fb"><path d="M 1449.707031 1002.324219 L 397.40625 1410.667969 L 38.445312 485.625 L 1090.742188 77.28125 Z M 1449.707031 1002.324219 " clip-rule="nonzero"/></clipPath><clipPath id="17ccfb1075"><path d="M 1449.707031 1002.324219 L 389.714844 1413.652344 L 30.753906 488.609375 L 1090.742188 77.28125 Z M 1449.707031 1002.324219 " clip-rule="nonzero"/></clipPath></defs><g clip-path="url(#5a6c8a61bc)"><g clip-path="url(#786237b0fb)"><g clip-path="url(#17ccfb1075)"><path fill="#00cbc7" d="M 1179.535156 472.070312 C 1184.925781 403.910156 1185.179688 333.976562 1163.742188 272.082031 C 1142.304688 210.183594 1095.574219 157.21875 1034.546875 147.46875 C 946.894531 133.457031 864.011719 206.519531 784.859375 259.96875 C 702.636719 315.488281 612.511719 353.136719 525.335938 397.429688 C 438.160156 441.726562 351.546875 494.589844 286.175781 572.871094 C 220.804688 651.152344 179.546875 759.367188 198.789062 856.8125 C 224.964844 989.355469 347.246094 1060.992188 458.351562 1117.898438 C 559.558594 1169.730469 665.988281 1222.699219 781.703125 1214.921875 C 926.277344 1205.207031 999.1875 1104.449219 1050.597656 969.28125 C 1113.296875 804.414062 1165.640625 647.839844 1179.535156 472.070312 " fill-opacity="1" fill-rule="nonzero"/></g></g></g></svg>