<svg xmlns="http://www.w3.org/2000/svg" xmlns:xlink="http://www.w3.org/1999/xlink" width="2000" zoomAndPan="magnify" viewBox="0 0 1500 1499.999933" height="2000" preserveAspectRatio="xMidYMid meet" version="1.0"><defs><clipPath id="c8b0a68079"><path d="M 154 201.566406 L 1307 201.566406 L 1307 1294 L 154 1294 Z M 154 201.566406 " clip-rule="nonzero"/></clipPath></defs><g clip-path="url(#c8b0a68079)"><path fill="#5dcad1" d="M 774.160156 201.992188 C 837.597656 203.152344 896.777344 231.511719 950.171875 272.832031 C 1028.269531 333.257812 1080.300781 415.140625 1128.640625 499.023438 C 1184.503906 595.964844 1235.214844 695.734375 1277.351562 799.519531 C 1311.234375 882.964844 1314.648438 968.652344 1291.230469 1055.308594 C 1271.363281 1128.832031 1218.007812 1171.5 1152.0625 1200.628906 C 1075.261719 1234.546875 993.203125 1248.851562 910.984375 1262.679688 C 829.59375 1276.371094 747.359375 1283.074219 665.46875 1291.179688 C 591.832031 1298.464844 518.722656 1284.714844 446.246094 1268.441406 C 364.328125 1250.050781 295.53125 1208.695312 231.574219 1157.027344 C 195.550781 1127.9375 179.128906 1087.019531 164.945312 1044.769531 C 150.363281 1001.308594 151.8125 958.136719 164.859375 914.601562 C 191.304688 826.367188 225.171875 741.222656 279.648438 666.453125 C 322.71875 607.335938 371.296875 552.253906 415.074219 493.617188 C 461.234375 431.789062 511.550781 373.683594 563.066406 316.457031 C 608.507812 265.976562 658.738281 222.691406 726.613281 205.117188 C 740.363281 201.578125 754.269531 203.378906 774.160156 201.992188 Z M 774.160156 201.992188 " fill-opacity="1" fill-rule="nonzero"/></g></svg>